<svg width="37" height="37" viewBox="0 0 37 37" fill="none" xmlns="http://www.w3.org/2000/svg">
<g clip-path="url(#clip0_4_460)">
<path d="M36.07 9.12V26.93C36.07 31.97 31.98 36.06 26.94 36.06H20.82V23.18H24.97L25.76 18.03H20.82V14.69C20.82 13.28 21.51 11.9 23.72 11.9H25.97V7.52C25.97 7.52 23.93 7.17 21.98 7.17C17.91 7.17 15.25 9.64 15.25 14.1V18.03H10.73V23.18H15.25V36.06H9.13C4.09 36.06 0 31.97 0 26.93V9.12C0 4.08 4.09 0 9.13 0H26.94C31.98 0 36.07 4.08 36.07 9.12Z" fill="#C22C28"/>
</g>
<defs>
<clipPath id="clip0_4_460">
<rect width="36.07" height="36.06" fill="white"/>
</clipPath>
</defs>
</svg>
