<svg width="37" height="37" viewBox="0 0 37 37" fill="none" xmlns="http://www.w3.org/2000/svg">
<g clip-path="url(#clip0_4_366)">
<path d="M21.4201 18.07C21.4201 19.89 19.9401 21.37 18.1201 21.37C16.3001 21.37 14.8301 19.89 14.8301 18.07C14.8301 16.25 16.3101 14.78 18.1201 14.78C19.9301 14.78 21.4201 16.25 21.4201 18.07Z" fill="#D4D4D4"/>
<path d="M26.94 0H9.13C4.09 0 0 4.09 0 9.13V26.94C0 31.98 4.09 36.07 9.13 36.07H26.94C31.98 36.07 36.07 31.98 36.07 26.94V9.13C36.07 4.09 31.98 0 26.94 0ZM28.48 22.24C28.48 25.7 25.67 28.51 22.21 28.51H13.87C10.41 28.51 7.59 25.7 7.59 22.24V13.9C7.59 10.44 10.41 7.63 13.87 7.63H22.21C25.67 7.63 28.48 10.44 28.48 13.9V22.24ZM22.21 9.59H13.87C11.49 9.59 9.56 11.53 9.56 13.9V22.24C9.56 24.62 11.49 26.55 13.87 26.55H22.21C24.58 26.55 26.52 24.62 26.52 22.24V13.9C26.52 11.53 24.58 9.59 22.21 9.59ZM18.12 23.22C15.29 23.22 12.98 20.91 12.98 18.07C12.98 15.23 15.29 12.93 18.12 12.93C20.95 12.93 23.27 15.24 23.27 18.07C23.27 20.9 20.96 23.22 18.12 23.22ZM23.57 13.81C22.89 13.81 22.34 13.26 22.34 12.58C22.34 11.9 22.89 11.36 23.57 11.36C24.25 11.36 24.79 11.91 24.79 12.58C24.79 13.25 24.24 13.81 23.57 13.81Z" fill="#D4D4D4"/>
</g>
<defs>
<clipPath id="clip0_4_366">
<rect width="36.07" height="36.07" fill="white"/>
</clipPath>
</defs>
</svg>
