<svg width="89" height="29" viewBox="0 0 89 29" fill="none" xmlns="http://www.w3.org/2000/svg">
<g clip-path="url(#clip0_4_389)">
<rect width="89" height="27.5496" transform="translate(0 0.547729)" fill="#222222"/>
<path d="M10.737 22.67L8.97856 27.2343H0L11.448 1.04495H20.1275M25.0556 12.3184L31.5755 27.2333H22.4469L20.6884 22.669" fill="#C22C28"/>
<path d="M40.0168 27.3637C37.9465 26.8744 36.2469 26.2163 34.917 25.3876L37.7778 18.9138C39.0321 19.6415 40.4365 20.225 41.9929 20.6634C43.5484 21.1028 45.041 21.3225 46.4719 21.3225C47.7008 21.3225 48.5795 21.2038 49.1061 20.9645C49.6328 20.7262 49.8966 20.3692 49.8966 19.8916C49.8966 19.3404 49.5514 18.9256 48.8619 18.65C48.1715 18.3744 47.0368 18.0733 45.4559 17.7467C43.4238 17.3201 41.7301 16.8621 40.3747 16.3727C39.0194 15.8834 37.8405 15.0811 36.8373 13.9641C35.833 12.848 35.3318 11.3357 35.3318 9.42919C35.3318 7.77275 35.7957 6.26733 36.7245 4.91295C37.6522 3.55758 39.039 2.49153 40.8837 1.71381C42.7265 0.937078 44.9655 0.547729 47.5998 0.547729C49.4063 0.547729 51.1814 0.741913 52.9251 1.13126C54.6688 1.52061 56.2056 2.09139 57.5355 2.84361L54.863 9.27914C52.2788 7.97478 49.8319 7.32161 47.5242 7.32161C45.2166 7.32161 44.0995 7.87376 44.0995 8.97806C44.0995 9.50471 44.4379 9.89994 45.1156 10.1638C45.7933 10.4276 46.9093 10.709 48.4648 11.0101C50.4723 11.3867 52.165 11.8192 53.5459 12.3086C54.9258 12.798 56.1242 13.5943 57.1403 14.6986C58.1563 15.8029 58.6643 17.3084 58.6643 19.2149C58.6643 20.8713 58.1994 22.3709 57.2717 23.7125C56.3429 25.0551 54.9572 26.1212 53.1124 26.9116C51.2687 27.7021 49.0287 28.0973 46.3944 28.0973C44.2113 28.0973 42.0851 27.8531 40.0148 27.3637H40.0168Z" fill="white"/>
<path d="M73.193 21.0214V27.4952H64.3105V1.1499H73.193M79.6942 1.33232C81.031 1.52356 82.252 1.86387 83.3543 2.35424C85.1608 3.15745 86.5534 4.31177 87.5322 5.81718C88.511 7.3226 89.0004 9.07908 89.0004 11.0866C89.0004 13.0942 88.511 14.8507 87.5322 16.3561C86.5534 17.8615 85.1608 19.0158 83.3543 19.819C82.251 20.3094 81.031 20.6497 79.6942 20.8409" fill="white"/>
</g>
<defs>
<clipPath id="clip0_4_389">
<rect width="89" height="27.5496" fill="white" transform="translate(0 0.547729)"/>
</clipPath>
</defs>
</svg>
