<svg width="37" height="37" viewBox="0 0 37 37" fill="none" xmlns="http://www.w3.org/2000/svg">
<g clip-path="url(#clip0_4_441)">
<rect x="5" y="5" width="25" height="26" fill="#C22C28"/>
<rect x="5" y="5" width="25" height="26" fill="#C22C28"/>
<path d="M21.57 14.79C21.57 16.74 19.99 18.33 18.03 18.33C16.07 18.33 14.48 16.74 14.48 14.79C14.48 12.84 16.07 11.24 18.03 11.24C19.99 11.24 21.57 12.83 21.57 14.79Z" fill="#1D1D1D"/>
<path d="M26.93 0H9.12C4.08 0 0 4.08 0 9.12V26.93C0 31.97 4.08 36.06 9.12 36.06H26.93C31.97 36.06 36.06 31.97 36.06 26.93V9.12C36.06 4.08 31.97 0 26.93 0ZM18.03 29.79C18.03 29.79 9.08 20.16 9.08 15.22C9.08 10.28 13.09 6.27 18.03 6.27C22.97 6.27 26.98 10.27 26.98 15.22C26.98 20.17 18.03 29.79 18.03 29.79Z" fill="#1D1D1D"/>
</g>
<defs>
<clipPath id="clip0_4_441">
<rect width="36.06" height="36.06" fill="white"/>
</clipPath>
</defs>
</svg>
