<svg width="37" height="37" viewBox="0 0 37 37" fill="none" xmlns="http://www.w3.org/2000/svg">
<g clip-path="url(#clip0_4_437)">
<rect x="6" y="6" width="25" height="26" fill="#C22C28"/>
<rect x="6" y="6" width="25" height="26" fill="#C22C28"/>
<path d="M26.93 0H9.12C4.08 0 0 4.08 0 9.12V26.93C0 31.97 4.08 36.06 9.12 36.06H26.93C31.97 36.06 36.06 31.97 36.06 26.93V9.12C36.06 4.08 31.97 0 26.93 0ZM29.46 25.95C24.09 30.95 15.68 30.83 10.46 25.6C5.23 20.37 5.11 11.97 10.11 6.59C10.29 6.39 10.61 6.39 10.81 6.59L17.12 12.89L13.3 16.71C12.83 17.18 12.83 17.94 13.3 18.4L17.65 22.76C18.12 23.22 18.88 23.22 19.35 22.76L23.16 18.94L29.47 25.25C29.66 25.44 29.66 25.76 29.46 25.95Z" fill="#1D1D1D"/>
</g>
<defs>
<clipPath id="clip0_4_437">
<rect width="36.06" height="36.06" fill="white"/>
</clipPath>
</defs>
</svg>
